<svg width="256" height="256" viewBox="0 0 256 256" fill="none" xmlns="http://www.w3.org/2000/svg">
<g clip-path="url(#clip0_3564_26)">
<rect width="64" height="64" fill="#E64980" stroke="#E64980" stroke-width="4"/>
<rect x="64" width="64" height="64" fill="#E64980" stroke="#E64980" stroke-width="4"/>
<rect x="128" width="64" height="64" stroke="#E64980" stroke-width="4"/>
<rect x="192" width="64" height="64" stroke="#E64980" stroke-width="4"/>
<rect y="64" width="64" height="64" stroke="#E64980" stroke-width="4"/>
<rect x="64" y="64" width="64" height="64" stroke="#E64980" stroke-width="4"/>
<rect x="128" y="64" width="64" height="64" fill="#E64980" stroke="#E64980" stroke-width="4"/>
<rect x="192" y="64" width="64" height="64" stroke="#E64980" stroke-width="4"/>
<rect y="128" width="64" height="64" stroke="#E64980" stroke-width="4"/>
<rect x="64" y="128" width="64" height="64" stroke="#E64980" stroke-width="4"/>
<rect x="128" y="128" width="64" height="64" stroke="#E64980" stroke-width="4"/>
<rect x="192" y="128" width="64" height="64" fill="#E64980" stroke="#E64980" stroke-width="4"/>
<rect y="192" width="64" height="64" fill="#E64980" stroke="#E64980" stroke-width="4"/>
<rect x="64" y="192" width="64" height="64" stroke="#E64980" stroke-width="4"/>
<rect x="128" y="192" width="64" height="64" stroke="#E64980" stroke-width="4"/>
<rect x="192" y="192" width="64" height="64" stroke="#E64980" stroke-width="4"/>
</g>
<rect x="2" y="2" width="252" height="252" rx="62" stroke="#E64980" stroke-width="4"/>
<defs>
<clipPath id="clip0_3564_26">
<rect width="256" height="256" rx="64" fill="white"/>
</clipPath>
</defs>
</svg>
